<?xml version="1.0" encoding="UTF-8"?>
<svg width="27px" height="27px" viewBox="0 0 27 27" version="1.1" xmlns="http://www.w3.org/2000/svg" xmlns:xlink="http://www.w3.org/1999/xlink">
    <title>time_afternoon_active</title>
    <defs>
        <polygon id="path-1" points="0 0 2.16794382 0 2.16794382 2.39294092 0 2.39294092"></polygon>
        <polygon id="path-3" points="0 0 2.3937708 0 2.3937708 2.16801557 0 2.16801557"></polygon>
    </defs>
    <g id="Symbols" stroke="none" stroke-width="1" fill="none" fill-rule="evenodd">
        <g id="Monthly/task/time" transform="translate(-190.000000, -59.000000)">
            <g id="time_afternoon_active" transform="translate(190.000000, 59.000000)">
                <g id="Stroke" fill="#FB7A63">
                    <rect x="1.04370117" y="1.04370117" width="24.9125977" height="24.9125977" rx="12.4562988"></rect>
                </g>
                <g id="Group" transform="translate(2.500000, 2.500000)">
                    <g id="Group-21" transform="translate(1.559293, 1.466667)">
                        <path d="M8.53602448,2.39295858 L10.4168431,2.39295858 C10.520666,2.39295858 10.5900578,2.28595744 10.5478577,2.19113961 L9.60744839,0.0850182296 C9.55677294,-0.0283394099 9.39609466,-0.0283394099 9.34541921,0.0850182296 L8.40500988,2.19113961 C8.3626332,2.28595744 8.43220159,2.39295858 8.53602448,2.39295858" id="Fill-1" fill="#FFFFFF"></path>
                        <path d="M15.6090291,5.57147501 C15.6784209,5.64881246 15.8044916,5.62903667 15.8466917,5.53404227 L16.7860416,3.42756775 C16.8365405,3.31421011 16.7291862,3.19449597 16.6112378,3.23263499 L14.4155957,3.93944282 C14.3167167,3.97122534 14.2833451,4.09447087 14.3527369,4.17163176 L15.6090291,5.57147501 Z" id="Fill-3" fill="#FFFFFF"></path>
                        <path d="M16.4877274,8.52513014 L16.4893165,10.4059488 C16.4893165,10.5097717 16.5964942,10.5791635 16.6913121,10.5367868 L18.7965506,9.59461179 C18.9097317,9.54393633 18.9097317,9.38325806 18.796374,9.33275917 L16.6895464,8.39393897 C16.594552,8.35173885 16.4877274,8.42130725 16.4877274,8.52513014" id="Fill-5" fill="#FFFFFF"></path>
                        <path d="M3.03470054,5.53409524 C3.07707723,5.62891308 3.20297131,5.64886543 3.27236313,5.57152798 L4.52865535,4.17168473 C4.59804718,4.09434727 4.56467554,3.97127831 4.4657966,3.9394958 L2.27033104,3.23251139 C2.15220602,3.19454894 2.04485175,3.31426308 2.09535063,3.42744415 L3.03470054,5.53409524 Z" id="Fill-7" fill="#FFFFFF"></path>
                        <g id="Group-11" transform="translate(8.392514, 16.673726)">
                            <mask id="mask-2" fill="white">
                                <use xlink:href="#path-1"></use>
                            </mask>
                            <g id="Clip-10"></g>
                            <path d="M2.0242937,0 L0.14347505,0 C0.0396521651,0 -0.0297396609,0.107001136 0.0126370268,0.201818975 L0.952869784,2.30794035 C1.00354524,2.42129799 1.16422351,2.42129799 1.21489897,2.30794035 L2.1553083,0.201818975 C2.19768498,0.107001136 2.12829316,0 2.0242937,0" id="Fill-9" fill="#FFFFFF" mask="url(#mask-2)"></path>
                        </g>
                        <path d="M15.8467623,13.4761222 C15.8043857,13.3813043 15.6784916,13.361352 15.6090998,13.4386894 L14.3528075,14.8385327 C14.2834157,14.9158701 14.3166108,15.0389391 14.4156663,15.0708982 L16.6111318,15.777706 C16.7292569,15.8156684 16.8366111,15.6959543 16.7861123,15.5827732 L15.8467623,13.4761222 Z" id="Fill-12" fill="#FFFFFF"></path>
                        <path d="M3.27239845,13.4387424 C3.20300662,13.3614049 3.07693598,13.3811807 3.03473586,13.4761751 L2.09538595,15.5826496 C2.04488706,15.6960073 2.15224134,15.8157214 2.27018978,15.7775824 L4.46583191,15.0707746 C4.56471085,15.038992 4.59808249,14.9157465 4.52869067,14.8385856 L3.27239845,13.4387424 Z" id="Fill-14" fill="#FFFFFF"></path>
                        <g id="Group-18" transform="translate(0.000000, 8.381391)">
                            <mask id="mask-4" fill="white">
                                <use xlink:href="#path-3"></use>
                            </mask>
                            <g id="Clip-17"></g>
                            <path d="M2.39218167,2.02454052 L2.3937708,0.143721868 C2.3937708,0.0398989833 2.28676966,-0.0296694122 2.19195182,0.0125307059 L0.0851241713,0.951350907 C-0.0282334681,1.00184979 -0.0284100377,1.16252807 0.0847710322,1.21320352 L2.19018613,2.15537854 C2.28500397,2.19775523 2.39218167,2.12836341 2.39218167,2.02454052" id="Fill-16" fill="#FFFFFF" mask="url(#mask-4)"></path>
                        </g>
                        <path d="M9.41996687,15.1555633 C12.5312986,15.1555633 15.0535943,12.6332675 15.0535943,9.52193577 C15.0535943,6.41060405 12.5312986,3.88848486 9.41996687,3.88848486 C6.30863515,3.88848486 3.78633938,6.41060405 3.78633938,9.52193577 C3.78633938,12.6332675 6.30863515,15.1555633 9.41996687,15.1555633" id="Fill-19" fill="#FFFFFF"></path>
                    </g>
                </g>
            </g>
        </g>
    </g>
</svg>