<?xml version="1.0" encoding="UTF-8"?>
<svg width="27px" height="27px" viewBox="0 0 27 27" version="1.1" xmlns="http://www.w3.org/2000/svg" xmlns:xlink="http://www.w3.org/1999/xlink">
    <title>time_morning</title>
    <defs>
        <polygon id="path-1" points="0 0 2.22723044 0 2.22723044 2.4760714 0 2.4760714"></polygon>
        <polygon id="path-3" points="0 0 19.2374794 0 19.2374794 10.3741962 0 10.3741962"></polygon>
    </defs>
    <g id="Symbols" stroke="none" stroke-width="1" fill="none" fill-rule="evenodd">
        <g id="Monthly/task/time" transform="translate(-105.000000, -59.000000)">
            <g id="time_morning" transform="translate(105.000000, 59.000000)">
                <g id="Stroke" fill="#D3D5DA">
                    <rect x="1.04370117" y="1.04370117" width="24.9125977" height="24.9125977" rx="12.4562988"></rect>
                </g>
                <g id="Group" transform="translate(2.500000, 1.013184)">
                    <g id="Group-15" transform="translate(1.381260, 3.832172)">
                        <g id="Group-3" transform="translate(8.560036, 0.000000)">
                            <mask id="mask-2" fill="white">
                                <use xlink:href="#path-1"></use>
                            </mask>
                            <g id="Clip-2"></g>
                            <path d="M0.0741367016,2.4760714 L2.15309374,2.4760714 C2.20669518,2.4760714 2.2424913,2.42080071 2.22079107,2.37183607 L1.18121981,0.0437899685 C1.15506824,-0.0146337506 1.0721622,-0.0146337506 1.04601063,0.0437899685 L0.00643937629,2.37183607 C-0.0152608622,2.42080071 0.0205352577,2.4760714 0.0741367016,2.4760714" id="Fill-1" fill="#FFFFFF" mask="url(#mask-2)"></path>
                        </g>
                        <path d="M15.8351092,5.71150278 C15.8709053,5.75137928 15.936006,5.74117832 15.9578917,5.69221368 L16.9961647,3.36361116 C17.0223162,3.30518744 16.9668601,3.24342522 16.9058397,3.26308527 L14.478937,4.04429385 C14.4279322,4.06080087 14.4106833,4.12441781 14.4464794,4.16429432 L15.8351092,5.71150278 Z" id="Fill-4" fill="#FFFFFF"></path>
                        <path d="M16.6373688,8.4612383 L16.6390381,10.5401953 C16.6390381,10.5937968 16.6943088,10.6295929 16.7432734,10.6077072 L19.0705776,9.56628121 C19.1290014,9.54031512 19.1288159,9.45722361 19.0703922,9.43107204 L16.7416042,8.39354097 C16.6926395,8.37165526 16.6373688,8.40763686 16.6373688,8.4612383" id="Fill-6" fill="#FFFFFF"></path>
                        <path d="M3.31846724,5.69221368 C3.34035295,5.74117832 3.40545367,5.75137928 3.44124979,5.71150278 L4.82987958,4.16429432 C4.8656757,4.12441781 4.84842679,4.06080087 4.79742196,4.04429385 L2.37051922,3.26308527 C2.30949889,3.24342522 2.25404272,3.30518744 2.28019429,3.36361116 L3.31846724,5.69221368 Z" id="Fill-8" fill="#FFFFFF"></path>
                        <path d="M0.205836963,9.56637395 L2.5329557,10.6077999 C2.58192034,10.6296856 2.63719104,10.5938895 2.63737651,10.5402881 L2.63904576,8.46133103 C2.63904576,8.40754412 2.58377507,8.371748 2.53481042,8.39363371 L0.206022435,9.43116477 C0.147413244,9.45713087 0.147413244,9.54022238 0.205836963,9.56637395" id="Fill-10" fill="#FFFFFF"></path>
                        <g id="Group-14" transform="translate(0.000000, 3.961459)">
                            <mask id="mask-4" fill="white">
                                <use xlink:href="#path-3"></use>
                            </mask>
                            <g id="Clip-13"></g>
                            <path d="M0.495544421,10.3054832 C2.91577017,8.33929325 4.67330402,7.67808513 9.6176199,7.67808513 C14.5880874,7.67808513 16.4142459,8.36989615 18.7389535,10.30029 C18.8669293,10.4065655 19.0568527,10.3924697 19.164983,10.2657922 C19.2740406,10.1378164 19.2584609,9.94399807 19.1290014,9.83642423 C17.7591043,8.69725445 16.5590996,7.96760711 14.863328,7.54565803 C14.8746418,7.51338588 14.8805769,7.49224206 14.8822461,7.49298395 C15.1202069,6.83307413 15.2383526,6.11585343 15.2083061,5.36710246 C15.0947972,2.5251131 12.8062567,0.183342066 9.96742032,0.0106675181 C6.7186906,-0.187045766 4.02211139,2.38934751 4.02211139,5.59541865 C4.02211139,6.26163451 4.1391443,6.90040051 4.35280818,7.49298395 C4.35317913,7.49279847 4.35355007,7.492613 4.35410649,7.49242753 C4.3567031,7.5152406 4.36300915,7.53749726 4.37061351,7.55919749 C2.70637214,7.98318677 1.50006144,8.70931014 0.11124618,9.83698065 C-0.0193261953,9.94288523 -0.0375024635,10.1363327 0.0700713685,10.2656067 C0.176532368,10.3935825 0.366270351,10.4104605 0.495544421,10.3054832" id="Fill-12" fill="#FFFFFF" mask="url(#mask-4)"></path>
                        </g>
                    </g>
                </g>
            </g>
        </g>
    </g>
</svg>