<?xml version="1.0" encoding="UTF-8"?>
<svg width="27px" height="27px" viewBox="0 0 27 27" version="1.1" xmlns="http://www.w3.org/2000/svg" xmlns:xlink="http://www.w3.org/1999/xlink">
    <title>time_night</title>
    <g id="Symbols" stroke="none" stroke-width="1" fill="none" fill-rule="evenodd">
        <g id="Monthly/task/time" transform="translate(-282.000000, -59.000000)">
            <g id="time_night" transform="translate(282.000000, 59.000000)">
                <g id="Stroke" fill="#D3D5DA">
                    <rect x="1.04370117" y="1.04370117" width="24.9125977" height="24.9125977" rx="12.4562988"></rect>
                </g>
                <g id="Group" transform="translate(2.500000, 2.500000)" fill="#FFFFFF" fill-rule="nonzero">
                    <g id="moon-stars-fill" transform="translate(4.029381, 3.820925)">
                        <path d="M8.83063867,0.0354307864 C8.19043867,-0.16623588 7.643372,0.533356786 7.98290533,1.11269012 C8.518972,2.02642345 8.80790533,3.05749745 8.80790533,4.09149745 C8.80790533,7.33134945 6.18110533,9.95814945 2.94121667,9.95814945 C2.33108333,9.95814945 1.71434267,9.85988279 1.15334267,9.68314945 C0.513876,9.48148279 -0.05665,10.1810828 0.282883333,10.7604161 C1.58601667,12.9838828 3.96861667,14.3581495 6.60790533,14.3581495 C10.6581053,14.3581495 13.9412387,11.0750161 13.9412387,7.02481612 C13.9412387,3.79743079 11.8578387,0.987297453 8.83063867,0.0354307864 Z M4.40788333,1.15816412 C4.04121667,1.15816412 3.67455,1.40236412 3.67455,1.89149745 C3.67455,2.22003079 3.26975,2.62483079 2.94121667,2.62483079 C1.96368333,2.62483079 1.96368333,4.09149745 2.94121667,4.09149745 C3.26975,4.09149745 3.67455,4.49629745 3.67455,4.82482345 C3.67455,5.80234945 5.14123867,5.80234945 5.14123867,4.82482345 C5.14123867,4.49629745 5.54603867,4.09149745 5.874572,4.09149745 C6.85210533,4.09149745 6.85210533,2.62483079 5.874572,2.62483079 C5.54603867,2.62483079 5.14123867,2.22003079 5.14123867,1.89149745 C5.14123867,1.40236412 4.77455,1.15816412 4.40788333,1.15816412 Z M1.47455,5.55814945 C1.23035,5.55814945 0.993476,5.71361612 0.993476,6.03921612 C0.993476,6.25848279 0.708216667,6.54374945 0.48895,6.54374945 C-0.162983333,6.54374945 -0.162983333,7.50588279 0.48895,7.50588279 C0.708216667,7.50588279 0.993476,7.79114945 0.993476,8.01041612 C0.993476,8.66234945 1.95561667,8.66161612 1.95561667,8.01041612 C1.95561667,7.79114945 2.240876,7.50588279 2.46014267,7.50588279 C3.112076,7.50588279 3.112076,6.54374945 2.46014267,6.54374945 C2.240876,6.54374945 1.95561667,6.25848279 1.95561667,6.03921612 C1.95561667,5.71361612 1.71875,5.55814945 1.47455,5.55814945 Z" id="Shape"></path>
                    </g>
                </g>
            </g>
        </g>
    </g>
</svg>