<?xml version="1.0" encoding="UTF-8"?>
<svg width="24px" height="24px" viewBox="0 0 24 24" version="1.1" xmlns="http://www.w3.org/2000/svg" xmlns:xlink="http://www.w3.org/1999/xlink">
    <title>ICON/Tab/book</title>
    <g id="ICON/Tab/book" stroke="none" stroke-width="1" fill="none" fill-rule="evenodd">
        <path d="M5.99998,2.99998537 C3.79098,2.99998537 1.99998,4.79098537 1.99998,6.99998537 L1.99998,14.9999854 C1.99998,17.2089854 3.79098,18.9999854 5.99998,18.9999854 L9.00899,19.0099854 C9.43499,19.0099854 9.88098,19.2059854 10.39202,19.6769854 C10.59102,19.8609854 10.82902,20.0909854 10.99102,20.3059854 C11.17102,20.5459854 11.40602,21.0029854 12.00002,21.0000001 C12.59402,20.9969854 12.78702,20.5929854 13.00002,20.3119854 C13.16102,20.1139854 13.35402,19.9249854 13.55302,19.7409854 C14.06502,19.2699854 14.57402,18.9999854 15.00002,18.9999854 L18.00002,18.9999854 C20.20902,18.9999854 22.00002,17.2089854 22.00002,14.9999854 L22.00002,6.99998537 C22.00002,4.79098537 20.20902,2.99998537 18.00002,2.99998537 L15.00002,2.99998537 C13.78902,2.99998537 12.73402,3.55599537 12.00002,4.40599537 C11.26602,3.55599537 10.21102,2.99998537 8.99998,2.99998537 L5.99998,2.99998537 Z M5.99998,4.99998537 L8.99998,4.99998537 C10.10502,4.99998537 11.00002,5.89498537 11.00002,6.99998537 L11.00602,17.6489854 C10.38202,17.2439854 9.71199,16.9999854 8.99998,16.9999854 L5.99998,16.9999854 C4.89498,16.9999854 3.99998,16.1049854 3.99998,14.9999854 L3.99998,6.99998537 C3.99998,5.89498537 4.89498,4.99998537 5.99998,4.99998537 Z M15.00002,4.99998537 L18.00002,4.99998537 C19.10502,4.99998537 20.00002,5.89498537 20.00002,6.99998537 L20.00002,14.9999854 C20.00002,16.1049854 19.10502,16.9999854 18.00002,16.9999854 L15.00002,16.9999854 C14.28802,16.9999854 13.62002,17.2569854 12.99602,17.6619854 L13.00002,6.99998537 C13.00002,5.89498537 13.89502,4.99998537 15.00002,4.99998537 Z" id="Shape" fill="#000000" fill-rule="nonzero"></path>
    </g>
</svg>