<?xml version="1.0" encoding="UTF-8"?>
<svg width="24px" height="24px" viewBox="0 0 24 24" version="1.1" xmlns="http://www.w3.org/2000/svg" xmlns:xlink="http://www.w3.org/1999/xlink">
    <title>ICON/Tab/house-fill</title>
    <g id="ICON/Tab/house-fill" stroke="none" stroke-width="1" fill="none" fill-rule="evenodd">
        <path d="M12.000455,2.50005 C11.125455,2.50005 10.261455,2.83305 9.593505,3.50005 L2.281505,10.78105 C1.890505,11.17205 1.890505,11.82805 2.281505,12.21905 L4.000505,13.93805 L4.000505,17.50005 C4.000505,19.70895 5.791505,21.49995 8.000505,21.49995 L16.000455,21.49995 C18.209455,21.49995 20.000455,19.70895 20.000455,17.50005 L20.000455,13.93805 L21.718455,12.21905 C22.109455,11.82805 22.109455,11.17205 21.718455,10.78105 C21.379555,10.44203 20.137455,9.19404 19.000455,8.06204 L19.000455,5.50005 C19.000455,4.94804 18.552455,4.50005 18.000455,4.50005 C17.447455,4.50005 17.000455,4.94804 17.000455,5.50005 L17.000455,6.09403 C15.930455,5.02904 14.730555,3.82404 14.406555,3.50005 C13.738555,2.83305 12.874455,2.50005 12.000455,2.50005 Z" id="Path" fill="#000000" fill-rule="nonzero"></path>
    </g>
</svg>