<?xml version="1.0" encoding="UTF-8"?>
<svg width="24px" height="24px" viewBox="0 0 24 24" version="1.1" xmlns="http://www.w3.org/2000/svg" xmlns:xlink="http://www.w3.org/1999/xlink">
    <title>ICON/Tab/house</title>
    <g id="ICON/Tab/house" stroke="none" stroke-width="1" fill="none" fill-rule="evenodd">
        <path d="M12.000495,2.50005 C11.125495,2.50005 10.261495,2.83305 9.593495,3.50005 L2.281505,10.78105 C1.890505,11.17205 1.890505,11.82805 2.281505,12.21905 L4.000495,13.93805 L4.000495,17.50005 C4.000495,19.70895 5.791495,21.49995 8.000495,21.49995 L16.000495,21.49995 C18.209495,21.49995 20.000495,19.70895 20.000495,17.50005 L20.000495,13.93805 L21.718495,12.21905 C22.109495,11.82805 22.109495,11.17205 21.718495,10.78105 C21.379495,10.44203 20.137495,9.19404 19.000495,8.06204 L19.000495,5.50005 C19.000495,4.94804 18.552495,4.50005 18.000495,4.50005 C17.447495,4.50005 17.000495,4.94804 17.000495,5.50005 L17.000495,6.09403 C15.930495,5.02904 14.730495,3.82404 14.406495,3.50005 C13.738495,2.83305 12.874495,2.50005 12.000495,2.50005 Z M12.000495,4.50004 C12.363495,4.50004 12.723495,4.62905 13.000495,4.90605 C13.534495,5.44105 15.549495,7.44602 17.281495,9.18802 C17.288495,9.19502 17.274495,9.21202 17.281495,9.21902 C17.287495,9.22502 17.306495,9.21202 17.312495,9.21902 C18.227495,10.13802 19.028495,10.96605 19.562495,11.50004 L18.281495,12.78105 C18.094495,12.96905 18.000495,13.23505 18.000495,13.50004 L18.000495,17.50004 C18.000495,18.60495 17.104495,19.49995 16.000495,19.49995 L8.000495,19.49995 C6.895495,19.49995 6.000495,18.60495 6.000495,17.50004 L6.000495,13.50004 C6.000495,13.23505 5.906495,12.96905 5.718495,12.78105 L4.437505,11.50004 L11.000495,4.90605 C11.277495,4.62905 11.637495,4.50004 12.000495,4.50004 Z" id="Shape" fill="#000000" fill-rule="nonzero"></path>
    </g>
</svg>