<?xml version="1.0" encoding="UTF-8"?>
<svg width="24px" height="24px" viewBox="0 0 24 24" version="1.1" xmlns="http://www.w3.org/2000/svg" xmlns:xlink="http://www.w3.org/1999/xlink">
    <title>ICON/Tab/monthly-fill </title>
    <g id="ICON/Tab/monthly-fill-" stroke="none" stroke-width="1" fill="none" fill-rule="evenodd">
        <g id="calendar-range-fill" transform="translate(2.999980, 2.499980)" fill="#000000" fill-rule="nonzero">
            <path d="M5,-4.4408921e-16 C4.448,-4.4408921e-16 4,0.448 4,1 C1.791,1 0,2.791 0,5 L0,6.06201 L18.00004,6 L18.00004,5 C18.00004,2.791 16.20904,1 14.00004,1 C14.00004,0.448 13.55204,-4.4408921e-16 13.00004,-4.4408921e-16 C12.44804,-4.4408921e-16 12.00004,0.448 12.00004,1 L6,1 C6,0.448 5.552,-4.4408921e-16 5,-4.4408921e-16 Z M0,8.00004 L0,15.00004 C0,17.20904 1.791,19.00004 4,19.00004 L14.00004,19.00004 C16.20904,19.00004 18.00004,17.20904 18.00004,15.00004 L18.00004,8.00004 L0,8.00004 Z M11.00004,10.00004 L15.00004,10.00004 C15.55204,10.00004 16.00004,10.44804 16.00004,11.00004 C16.00004,11.55204 15.55204,12.00004 15.00004,12.00004 L11.00004,12.00004 C10.44804,12.00004 10.00004,11.55204 10.00004,11.00004 C10.00004,10.44804 10.44804,10.00004 11.00004,10.00004 Z M3,13.00004 L7.00004,13.00004 C7.55204,13.00004 8.00004,13.44804 8.00004,14.00004 C8.00004,14.55204 7.55204,15.00004 7.00004,15.00004 L3,15.00004 C2.448,15.00004 2,14.55204 2,14.00004 C2,13.44804 2.448,13.00004 3,13.00004 Z" id="Shape"></path>
        </g>
    </g>
</svg>