<?xml version="1.0" encoding="UTF-8"?>
<svg width="24px" height="24px" viewBox="0 0 24 24" version="1.1" xmlns="http://www.w3.org/2000/svg" xmlns:xlink="http://www.w3.org/1999/xlink">
    <title>ICON/Tab/people-fill</title>
    <g id="ICON/Tab/people-fill" stroke="none" stroke-width="1" fill="none" fill-rule="evenodd">
        <g id="people-fill" transform="translate(2.000000, 2.999995)" fill="#000000" fill-rule="nonzero">
            <path d="M13.5,-8.8817842e-16 C11.0147,-8.8817842e-16 9,2.015 9,4.5 C9,6.985 11.0147,9 13.5,9 C15.9853,9 18,6.985 18,4.5 C18,2.015 15.9853,-8.8817842e-16 13.5,-8.8817842e-16 Z M6,1 C3.7909,1 2,2.791 2,5 C2,7.20901 3.7909,9 6,9 C6.8294,9 7.5865,8.77201 8.2528,8.30601 C6.544,5.76603 6.7862,3.334 7.7175,1.375 C7.1856,1.123 6.6014,1 6,1 Z M3.0625,10.34401 C1.2284,11.10101 8.8817842e-16,12.95601 8.8817842e-16,15.00001 L8.8817842e-16,17.00001 C8.8817842e-16,17.55201 0.4477,18.00001 1,18.00001 L5.1528,18.00201 C4.9188,17.24201 4.9876,16.01001 5.003,15.01301 C5.0355,12.89601 5.911,11.38601 6.2539,10.98801 C5.6237,10.98301 4.8674,10.83001 4.3125,10.59401 C4.1785,10.53701 4.1007,10.49201 3.8438,10.37501 C3.5919,10.26001 3.3183,10.23801 3.0625,10.34401 Z M10.0625,10.34401 C8.2284,11.10101 7,12.95601 7,15.00001 L7,17.00001 C7,17.55201 7.4477,18.00001 8,18.00001 L19,18.00001 C19.5523,18.00001 20,17.55201 20,17.00001 L20,15.00001 C20,13.00401 18.7648,11.19401 16.9375,10.40601 C16.6803,10.29501 16.3806,10.29201 16.125,10.40601 C15.2402,10.80301 14.3782,11.00001 13.5,11.00001 C12.6248,11.00001 11.7598,10.79201 10.8438,10.37501 C10.5919,10.26001 10.3183,10.23801 10.0625,10.34401 Z" id="Shape"></path>
        </g>
    </g>
</svg>