<?xml version="1.0" encoding="UTF-8"?>
<svg width="24px" height="24px" viewBox="0 0 24 24" version="1.1" xmlns="http://www.w3.org/2000/svg" xmlns:xlink="http://www.w3.org/1999/xlink">
    <title>ICON/Tab/person</title>
    <g id="ICON/Tab/person" stroke="none" stroke-width="1" fill="none" fill-rule="evenodd">
        <path d="M12,2.00001 C9.2386,2.00001 7,4.23862 7,7.00001 C7,9.76142 9.2386,11.99999 12,11.99999 C14.7614,11.99999 17,9.76142 17,7.00001 C17,4.23862 14.7614,2.00001 12,2.00001 Z M12,4.00001 C13.6569,4.00001 15,5.34312 15,7.00001 C15,8.65691 13.6569,10.00001 12,10.00001 C10.3431,10.00001 9,8.65691 9,7.00001 C9,5.34312 10.3431,4.00001 12,4.00001 Z M8.4688,13.31249 C5.8545,14.02699 4,16.30019 4,18.99999 L4,20.99999 C4,21.55229 4.4477,21.99999 5,21.99999 L19,21.99999 C19.5523,21.99999 20,21.55229 20,20.99999 L20,18.99999 C20,16.30019 18.1455,14.02699 15.5312,13.31249 C15.3071,13.25119 15.0869,13.27949 14.875,13.37499 C13.9595,13.78759 12.9849,13.99999 12,13.99999 C11.0151,13.99999 10.0405,13.78759 9.125,13.37499 C8.9131,13.27949 8.6929,13.25119 8.4688,13.31249 Z M8.875,15.31249 C9.8848,15.69439 10.9197,15.99999 12,15.99999 C13.0803,15.99999 14.1152,15.69439 15.125,15.31249 C16.8284,15.82849 18,17.26639 18,18.99999 L18,19.99999 L6,19.99999 L6,18.99999 C6,17.26639 7.1716,15.82849 8.875,15.31249 Z" id="Shape" fill="#000000" fill-rule="nonzero"></path>
    </g>
</svg>