<?xml version="1.0" encoding="UTF-8"?>
<svg width="24px" height="24px" viewBox="0 0 24 24" version="1.1" xmlns="http://www.w3.org/2000/svg" xmlns:xlink="http://www.w3.org/1999/xlink">
    <title>ICON/Tab/book-fill</title>
    <g id="ICON/Tab/book-fill" stroke="none" stroke-width="1" fill="none" fill-rule="evenodd">
        <g id="book-half" transform="translate(1.999980, 2.999956)" fill="#000000" fill-rule="nonzero">
            <path d="M4,0 C1.791,0 0,1.791 0,4 L0,12 C0,14.209 1.791,16 4,16 L7.009,16.01 C7.435,16.01 7.881,16.206 8.39204,16.677 C8.59104,16.861 8.82904,17.091 8.99104,17.306 C9.17104,17.546 9.40604,18.003 10.00004,18.0000147 C10.59404,17.997 10.78704,17.593 11.00004,17.312 C11.16104,17.114 11.35404,16.925 11.55304,16.741 C12.06504,16.27 12.57404,16 13.00004,16 L16.00004,16 C18.20904,16 20.00004,14.209 20.00004,12 L20.00004,4 C20.00004,1.791 18.20904,0 16.00004,0 L13.00004,0 C11.78904,0 10.73404,0.55601 10.00004,1.40601 C9.26604,0.55601 8.21104,0 7,0 L4,0 Z M13.00004,2 L16.00004,2 C17.10504,2 18.00004,2.895 18.00004,4 L18.00004,12 C18.00004,13.105 17.10504,14 16.00004,14 L13.00004,14 C12.28804,14 11.62004,14.257 10.99604,14.662 L11.00004,4 C11.00004,2.895 11.89504,2 13.00004,2 Z" id="Shape"></path>
        </g>
    </g>
</svg>