<?xml version="1.0" encoding="UTF-8"?>
<svg width="24px" height="24px" viewBox="0 0 24 24" version="1.1" xmlns="http://www.w3.org/2000/svg" xmlns:xlink="http://www.w3.org/1999/xlink">
    <title>ICON/Tab/monthly</title>
    <g id="ICON/Tab/monthly" stroke="none" stroke-width="1" fill="none" fill-rule="evenodd">
        <g id="calendar-range" transform="translate(3.000000, 2.499980)" fill="#000000" fill-rule="nonzero">
            <path d="M5,-4.4408921e-16 C4.448,-4.4408921e-16 4,0.448 4,1 C1.791,1 0,2.791 0,5 L0,7 L0,15.00004 C0,17.20804 1.791,19.00004 4,19.00004 L14,19.00004 C16.209,19.00004 18,17.20904 18,15.00004 L18,7 L18,5 C18,2.791 16.209,1 14,1 C14,0.448 13.552,-4.4408921e-16 13,-4.4408921e-16 C12.448,-4.4408921e-16 12,0.448 12,1 L6,1 C6,0.448 5.552,-4.4408921e-16 5,-4.4408921e-16 Z M4,3 C4,3.552 4.448,4 5,4 C5.552,4 6,3.552 6,3 L12,3 C12,3.552 12.448,4 13,4 C13.552,4 14,3.552 14,3 C15.105,3 16,3.895 16,5 L16,6 C14.076,6 3.924,6 2,6 L2,5 C2,3.895 2.895,3 4,3 Z M2,8.00004 C3.924,8.00004 14.076,8.00004 16,8.00004 L16,15.00004 C16,16.10304 15.105,17.00004 14,17.00004 L4,17.00004 C2.895,17.00004 2,16.10504 2,15.00004 L2,8.00004 Z M10,10.00004 C9.448,10.00004 9,10.44804 9,11.00004 C9,11.55204 9.448,12.00004 10,12.00004 L13,12.00004 C13.552,12.00004 14,11.55204 14,11.00004 C14,10.44804 13.552,10.00004 13,10.00004 L10,10.00004 Z M5,13.00004 C4.448,13.00004 4,13.44804 4,14.00004 C4,14.55204 4.448,15.00004 5,15.00004 L8,15.00004 C8.552,15.00004 9,14.55204 9,14.00004 C9,13.44804 8.552,13.00004 8,13.00004 L5,13.00004 Z" id="Shape"></path>
        </g>
    </g>
</svg>