<?xml version="1.0" encoding="UTF-8"?>
<svg width="24px" height="24px" viewBox="0 0 24 24" version="1.1" xmlns="http://www.w3.org/2000/svg" xmlns:xlink="http://www.w3.org/1999/xlink">
    <title>ICON/Tab/person-fill</title>
    <g id="ICON/Tab/person-fill" stroke="none" stroke-width="1" fill="none" fill-rule="evenodd">
        <path d="M12,2.00001 C9.2386,2.00001 7,4.23862 7,7.00001 C7,9.76142 9.2386,11.99999 12,11.99999 C14.7614,11.99999 17,9.76142 17,7.00001 C17,4.23862 14.7614,2.00001 12,2.00001 Z M8.4688,13.31249 C5.8545,14.02699 4,16.30019 4,18.99999 L4,20.99999 C4,21.55229 4.4477,21.99999 5,21.99999 L19,21.99999 C19.5523,21.99999 20,21.55229 20,20.99999 L20,18.99999 C20,16.30019 18.1455,14.02699 15.5312,13.31249 C15.3071,13.25119 15.0869,13.27949 14.875,13.37499 C13.9595,13.78759 12.9849,13.99999 12,13.99999 C11.0151,13.99999 10.0405,13.78759 9.125,13.37499 C8.9131,13.27949 8.6929,13.25119 8.4688,13.31249 Z" id="Shape" fill="#000000" fill-rule="nonzero"></path>
    </g>
</svg>