<?xml version="1.0" encoding="UTF-8"?>
<svg width="24px" height="24px" viewBox="0 0 24 24" version="1.1" xmlns="http://www.w3.org/2000/svg" xmlns:xlink="http://www.w3.org/1999/xlink">
    <title>ICON/Tab/people</title>
    <g id="ICON/Tab/people" stroke="none" stroke-width="1" fill="none" fill-rule="evenodd">
        <path d="M15.5,2.999995 C13.0147,2.999995 11,5.014995 11,7.499995 C11,9.984995 13.0147,11.999995 15.5,11.999995 C17.9853,11.999995 20,9.984995 20,7.499995 C20,5.014995 17.9853,2.999995 15.5,2.999995 Z M8,3.999995 C5.7909,3.999995 4,5.790995 4,7.999995 C4,10.209005 5.7909,11.999995 8,11.999995 C8.8294,11.999995 9.615,11.747005 10.2812,11.281005 C10.7339,10.965005 10.8476,10.328005 10.5312,9.874995 C10.2148,9.421995 9.6089,9.339995 9.1562,9.655995 C8.8233,9.888995 8.4162,9.999995 8,9.999995 C6.8954,9.999995 6,9.104995 6,7.999995 C6,6.894995 6.8954,5.999995 8,5.999995 C8.3262,5.999995 8.6246,6.071985 8.9062,6.218985 C9.3962,6.473985 10.0264,6.302005 10.2812,5.812005 C10.5361,5.323005 10.3337,4.691985 9.8438,4.437985 C9.2787,4.143985 8.6494,3.999995 8,3.999995 Z M15.5,4.999995 C16.8807,4.999995 18,6.118995 18,7.499995 C18,8.880995 16.8807,9.999995 15.5,9.999995 C14.1193,9.999995 13,8.880995 13,7.499995 C13,6.118995 14.1193,4.999995 15.5,4.999995 Z M5.0625,13.344005 C3.2284,14.101005 2,15.956005 2,18.000005 L2,20.000005 C2,20.552005 2.4477,21.000005 3,21.000005 L7,21.000005 C7.5523,21.000005 8,20.552005 8,20.000005 C8,19.448005 7.5523,19.000005 7,19.000005 L4,19.000005 L4,18.000005 C4,16.876005 4.6667,15.844005 5.433,15.390005 C6.1537,15.694005 6.9161,15.924005 7.5941,15.981005 C8.1445,16.028005 8.6408,15.613005 8.6875,15.062005 C8.7342,14.512005 8.3365,14.046005 7.7862,13.999005 C7.3472,13.962005 6.8674,13.830005 6.3125,13.594005 C6.1785,13.537005 6.1007,13.492005 5.8438,13.375005 C5.5919,13.260005 5.3183,13.238005 5.0625,13.344005 Z M12.0625,13.344005 C10.2284,14.101005 9,15.956005 9,18.000005 L9,20.000005 C9,20.552005 9.4477,21.000005 10,21.000005 L21,21.000005 C21.5523,21.000005 22,20.552005 22,20.000005 L22,18.000005 C22,16.004005 20.7648,14.194005 18.9375,13.406005 C18.6803,13.295005 18.3806,13.292005 18.125,13.406005 C17.2402,13.803005 16.3782,14.000005 15.5,14.000005 C14.6248,14.000005 13.7598,13.792005 12.8438,13.375005 C12.5919,13.260005 12.3183,13.238005 12.0625,13.344005 Z M12.447,15.390005 C13.3918,15.748005 14.5309,16.000005 15.5,16.000005 C16.4615,16.000005 17.5535,15.765005 18.4792,15.423005 C19.3818,15.937005 20,16.899005 20,18.000005 L20,19.000005 L11,19.000005 L11,18.000005 C11,16.835005 11.6559,15.853005 12.447,15.390005 Z" id="Shape" fill="#000000" fill-rule="nonzero"></path>
    </g>
</svg>