<?xml version="1.0" encoding="UTF-8"?>
<svg width="30px" height="30px" viewBox="0 0 30 30" version="1.1" xmlns="http://www.w3.org/2000/svg" xmlns:xlink="http://www.w3.org/1999/xlink">
    <title>ICON/timezone/afternoon</title>
    <defs>
        <polygon id="path-1" points="0 0 2.95628703 0 2.95628703 3.26310126 0 3.26310126"></polygon>
        <polygon id="path-3" points="0 0 3.26423291 0 3.26423291 2.95638487 0 2.95638487"></polygon>
    </defs>
    <g id="ICON/timezone/afternoon" stroke="none" stroke-width="1" fill="none" fill-rule="evenodd">
        <g id="Group-21" transform="translate(2.126308, 2.000000)">
            <path d="M11.6400334,3.26312534 L14.2047861,3.26312534 C14.3463627,3.26312534 14.440988,3.1172147 14.3834423,2.98791764 L13.101066,0.115933949 C13.0319631,-0.0386446498 12.8128564,-0.0386446498 12.7437535,0.115933949 L11.4613771,2.98791764 C11.4035907,3.1172147 11.4984567,3.26312534 11.6400334,3.26312534" id="Fill-1" fill="#FFFFFF"></path>
            <path d="M21.2850397,7.59746592 C21.3796649,7.70292608 21.5515794,7.6759591 21.6091251,7.54642127 L22.8900568,4.67395602 C22.9589189,4.51937743 22.8125267,4.35613087 22.6516879,4.40813862 L19.6576304,5.37196749 C19.5227955,5.41530728 19.4772887,5.58336937 19.571914,5.68858876 L21.2850397,7.59746592 Z" id="Fill-3" fill="#FFFFFF"></path>
            <path d="M22.4832646,11.6251775 L22.4854316,14.1899302 C22.4854316,14.3315068 22.631583,14.426132 22.7608801,14.3683457 L25.6316599,13.0835615 C25.7859977,13.0144586 25.7859977,12.7953519 25.6314191,12.7264898 L22.7584723,11.4462804 C22.6289345,11.3887348 22.4832646,11.4836008 22.4832646,11.6251775" id="Fill-5" fill="#FFFFFF"></path>
            <path d="M4.13822801,7.54649351 C4.19601441,7.67579056 4.36768815,7.70299832 4.46231336,7.59753815 L6.17543912,5.68866099 C6.27006433,5.58320083 6.22455755,5.41537951 6.08972263,5.37203972 L3.09590596,4.40797008 C2.9348264,4.3562031 2.7884342,4.51944966 2.85729632,4.67378748 L4.13822801,7.54649351 Z" id="Fill-7" fill="#FFFFFF"></path>
            <g id="Group-11" transform="translate(11.444337, 22.736899)">
                <mask id="mask-2" fill="white">
                    <use xlink:href="#path-1"></use>
                </mask>
                <g id="Clip-10"></g>
                <path d="M2.7604005,0 L0.195647795,0 C0.0540711343,0 -0.040554083,0.14591064 0.0172323092,0.275207693 L1.29936789,3.14719139 C1.36847078,3.30176999 1.58757752,3.30176999 1.65668041,3.14719139 L2.93905677,0.275207693 C2.99684316,0.14591064 2.90221794,0 2.7604005,0" id="Fill-9" fill="#FFFFFF" mask="url(#mask-2)"></path>
            </g>
            <path d="M21.6092214,18.3765302 C21.551435,18.2472332 21.3797612,18.2200254 21.285136,18.3254856 L19.5720103,20.2343627 C19.4773851,20.3398229 19.5226511,20.5076442 19.6577268,20.5512248 L22.6515434,21.5150536 C22.812623,21.5668206 22.9590152,21.4035741 22.8901531,21.2492362 L21.6092214,18.3765302 Z" id="Fill-12" fill="#FFFFFF"></path>
            <path d="M4.46236152,18.3255578 C4.3677363,18.2200976 4.19582178,18.2470646 4.13827617,18.3766024 L2.85734447,21.2490677 C2.78848236,21.4036463 2.93487455,21.5668928 3.09571334,21.5148851 L6.08977079,20.5510562 C6.22460571,20.5077164 6.27011249,20.3396543 6.17548727,20.2344349 L4.46236152,18.3255578 Z" id="Fill-14" fill="#FFFFFF"></path>
            <g id="Group-18" transform="translate(0.000000, 11.429169)">
                <mask id="mask-4" fill="white">
                    <use xlink:href="#path-3"></use>
                </mask>
                <g id="Clip-17"></g>
                <path d="M3.26206592,2.76073707 L3.26423291,0.195984366 C3.26423291,0.0544077045 3.11832227,-0.0404582894 2.98902522,0.0170873262 L0.116078415,1.29729669 C-0.0385001838,1.36615881 -0.0387409605,1.58526555 0.115596862,1.65436844 L2.98661745,2.93915256 C3.1159145,2.99693895 3.26206592,2.90231373 3.26206592,2.76073707" id="Fill-16" fill="#FFFFFF" mask="url(#mask-4)"></path>
            </g>
            <path d="M12.8454094,20.6666772 C17.0881344,20.6666772 20.5276287,17.2271829 20.5276287,12.9844579 C20.5276287,8.7417328 17.0881344,5.30247935 12.8454094,5.30247935 C8.60268429,5.30247935 5.16319007,8.7417328 5.16319007,12.9844579 C5.16319007,17.2271829 8.60268429,20.6666772 12.8454094,20.6666772" id="Fill-19" fill="#FFFFFF"></path>
        </g>
    </g>
</svg>