<?xml version="1.0" encoding="UTF-8"?>
<svg width="24px" height="24px" viewBox="0 0 24 24" version="1.1" xmlns="http://www.w3.org/2000/svg" xmlns:xlink="http://www.w3.org/1999/xlink">
    <title>ICON/calendar</title>
    <g id="ICON/calendar" stroke="none" stroke-width="1" fill="none" fill-rule="evenodd">
        <g id="calendar3-check" transform="translate(3.000000, 2.499980)" fill="#AFD29B" fill-rule="nonzero">
            <path d="M5,-4.4408921e-16 C4.448,-4.4408921e-16 4,0.448 4,1 C1.791,1 0,2.791 0,5 L0,15.00004 C0,17.20904 1.791,19.00004 4,19.00004 L14,19.00004 C16.209,19.00004 18,17.20904 18,15.00004 L18,5 C18,2.791 16.209,1 14,1 C14,0.448 13.552,-4.4408921e-16 13,-4.4408921e-16 C12.448,-4.4408921e-16 12,0.448 12,1 L6,1 C6,0.448 5.552,-4.4408921e-16 5,-4.4408921e-16 Z M4,3 C4,3.552 4.448,4 5,4 C5.552,4 6,3.552 6,3 L12,3 C12,3.552 12.448,4 13,4 C13.552,4 14,3.552 14,3 C15.105,3 16,3.895 16,5 L16,15.00004 C16,16.10504 15.105,17.00004 14,17.00004 L4,17.00004 C2.895,17.00004 2,16.10504 2,15.00004 L2,5 C2,3.895 2.895,3 4,3 Z" id="Shape"></path>
            <path d="M11.8125094,6.5078325 C11.2945406,6.5078325 10.8750094,6.92736375 10.8750094,7.4453325 L10.8750094,13.0703325 C10.8750094,13.5883013 11.2945406,14.0078325 11.8125094,14.0078325 L12.7500094,14.0078325 C13.2679781,14.0078325 13.6875094,13.5883013 13.6875094,13.0703325 L13.6875094,7.4453325 C13.6875094,6.92736375 13.2679781,6.5078325 12.7500094,6.5078325 L11.8125094,6.5078325 Z M8.53125938,8.3828325 C8.01327188,8.3828325 7.59374063,8.80236375 7.59374063,9.3203325 L7.59374063,13.0703325 C7.59374063,13.5883013 8.01327188,14.0078325 8.53125938,14.0078325 L9.46875938,14.0078325 C9.98672813,14.0078325 10.4062594,13.5883013 10.4062594,13.0703325 L10.4062594,9.3203325 C10.4062594,8.80236375 9.98672813,8.3828325 9.46875938,8.3828325 L8.53125938,8.3828325 Z M5.24999063,10.2578325 C4.73202188,10.2578325 4.31249063,10.6773638 4.31249063,11.1953325 L4.31249063,13.0703325 C4.31249063,13.5883013 4.73202188,14.0078325 5.24999063,14.0078325 L6.18749063,14.0078325 C6.70545938,14.0078325 7.12499063,13.5883013 7.12499063,13.0703325 L7.12499063,11.1953325 C7.12499063,10.6773638 6.70545938,10.2578325 6.18749063,10.2578325 L5.24999063,10.2578325 Z" id="Shape"></path>
        </g>
    </g>
</svg>