<?xml version="1.0" encoding="UTF-8"?>
<svg width="34px" height="34px" viewBox="0 0 34 34" version="1.1" xmlns="http://www.w3.org/2000/svg" xmlns:xlink="http://www.w3.org/1999/xlink">
    <title>Profile</title>
    <g id="Profile" stroke="none" stroke-width="1" fill="none" fill-rule="evenodd">
        <path d="M33.5513403,17.0000753 C33.5513403,26.3884311 26.0402094,33.999945 16.7756701,33.999945 C7.509779,33.999945 0,26.3884311 0,17.0000753 C0,7.61171943 7.509779,0.000205494437 16.7756701,0.000205494437 C26.0402094,0.000205494437 33.5513403,7.61171943 33.5513403,17.0000753" id="Fill-1" fill-opacity="0.4" fill="#EAF5F9"></path>
        <path d="M22.3756265,14.7444313 C22.3756265,17.6994413 20.0111614,20.0955064 17.095123,20.0955064 C14.1777327,20.0955064 11.8146195,17.6994413 11.8146195,14.7444313 C11.8146195,11.7894213 14.1777327,9.39335619 17.095123,9.39335619 C20.0111614,9.39335619 22.3756265,11.7894213 22.3756265,14.7444313 Z" id="Stroke-3" stroke="#4385A7" stroke-width="2" stroke-linecap="round" stroke-linejoin="round"></path>
        <path d="M25.5656941,27.0139561 L23.2228593,25.689202 C19.4186257,23.5369903 14.7843282,23.5369903 10.9800945,25.689202 L7.83017821,27.4701538 C6.17951391,28.4030985 4.0624457,27.9386811 3.01607866,26.3426743 C-1.46410273,19.5147792 -0.593482084,10.1456028 5.62658869,4.30408097 C11.7371559,-1.43469366 22.4657979,-1.43469366 28.5763652,4.30408097 C35.6467781,10.9442912 35.803598,22.1409981 29.0508804,28.9839628 C23.3634565,34.7473968 14.6302121,35.5447152 8.10055729,31.3731781" id="Stroke-5" stroke="#4385A7" stroke-width="2" stroke-linecap="round" stroke-linejoin="round"></path>
        <path d="M19.592209,8.68508537 C17.6089785,8.05353246 15.3756472,8.63850663 13.9588609,10.3482203" id="Stroke-7" stroke="#4385A7" stroke-width="2" stroke-linecap="round" stroke-linejoin="round"></path>
    </g>
</svg>