<?xml version="1.0" encoding="UTF-8"?>
<svg width="30px" height="30px" viewBox="0 0 30 30" version="1.1" xmlns="http://www.w3.org/2000/svg" xmlns:xlink="http://www.w3.org/1999/xlink">
    <title>ICON/timezone/morning</title>
    <defs>
        <polygon id="path-1" points="0 0 3.03713242 0 3.03713242 3.376461 0 3.376461"></polygon>
        <polygon id="path-3" points="0 0 26.2329264 0 26.2329264 14.1466312 0 14.1466312"></polygon>
    </defs>
    <g id="ICON/timezone/morning" stroke="none" stroke-width="1" fill="none" fill-rule="evenodd">
        <g id="Group-15" transform="translate(1.883537, 5.225690)">
            <g id="Group-3" transform="translate(11.672776, 0.000000)">
                <mask id="mask-2" fill="white">
                    <use xlink:href="#path-1"></use>
                </mask>
                <g id="Clip-2"></g>
                <path d="M0.101095502,3.376461 L2.93603692,3.376461 C3.0091298,3.376461 3.05794269,3.30109188 3.02835145,3.23432191 L1.61075429,0.0597135934 C1.57509306,-0.0199551144 1.46203937,-0.0199551144 1.42637813,0.0597135934 L0.00878096767,3.23432191 C-0.0208102667,3.30109188 0.0280026242,3.376461 0.101095502,3.376461" id="Fill-1" fill="#FFFFFF" mask="url(#mask-2)"></path>
            </g>
            <path d="M21.5933307,7.78841288 C21.6421436,7.84278993 21.7309173,7.82887952 21.7607614,7.76210956 L23.1765882,4.58674249 C23.2122494,4.50707378 23.1366274,4.42285258 23.0534178,4.44966173 L19.744005,5.51494616 C19.674453,5.53745574 19.6509317,5.62420611 19.6997446,5.67858316 L21.5933307,7.78841288 Z" id="Fill-4" fill="#FFFFFF"></path>
            <path d="M22.6873212,11.5380522 L22.6895974,14.3729936 C22.6895974,14.4460865 22.7649665,14.4948994 22.8317365,14.4650553 L26.0053332,13.0449289 C26.0850019,13.0095206 26.0847489,12.896214 26.0050802,12.8605528 L22.8294602,11.4457377 C22.7626903,11.4158935 22.6873212,11.4649593 22.6873212,11.5380522" id="Fill-6" fill="#FFFFFF"></path>
            <path d="M4.5251826,7.76210956 C4.55502676,7.82887952 4.64380046,7.84278993 4.69261335,7.78841288 L6.58619943,5.67858316 C6.63501232,5.62420611 6.61149108,5.53745574 6.54193904,5.51494616 L3.23252621,4.44966173 C3.14931667,4.42285258 3.07369462,4.50707378 3.10935585,4.58674249 L4.5251826,7.76210956 Z" id="Fill-8" fill="#FFFFFF"></path>
            <path d="M0.280686768,13.0450554 L3.4540305,14.4651817 C3.52080047,14.4950259 3.5961696,14.446213 3.59642251,14.3731201 L3.59869876,11.5381787 C3.59869876,11.4648329 3.52332963,11.41602 3.45655967,11.4458641 L0.280939685,12.8606792 C0.20101806,12.8960875 0.20101806,13.0093942 0.280686768,13.0450554" id="Fill-10" fill="#FFFFFF"></path>
            <g id="Group-14" transform="translate(0.000000, 5.401990)">
                <mask id="mask-4" fill="white">
                    <use xlink:href="#path-3"></use>
                </mask>
                <g id="Clip-13"></g>
                <path d="M0.675742392,14.0529317 C3.97605023,11.3717635 6.37268729,10.4701161 13.1149362,10.4701161 C19.8928464,10.4701161 22.3830626,11.4134947 25.5531184,14.04585 C25.7276308,14.1907712 25.9866173,14.1715495 26.1340677,13.9988075 C26.2827826,13.8242951 26.2615376,13.5599974 26.0850019,13.4133058 C24.2169603,11.8598924 22.5805904,10.8649188 20.2681745,10.2895337 C20.2836024,10.2455262 20.2916958,10.2166937 20.293972,10.2177054 C20.6184639,9.31782836 20.7795718,8.33980013 20.7385993,7.31877608 C20.5838144,3.44333605 17.4630773,0.250011908 13.5919368,0.0145466156 C9.16185082,-0.255062408 5.48469735,3.25820115 5.48469735,7.63011633 C5.48469735,8.53859252 5.64428768,9.40963706 5.93564752,10.2177054 C5.93615336,10.2174525 5.93665919,10.2171995 5.93741794,10.2169466 C5.94095877,10.2480554 5.94955793,10.2784053 5.95992751,10.3079966 C3.69050746,10.8861638 2.04553833,11.876332 0.151699336,13.4140645 C-0.0263539027,13.5584799 -0.0511397229,13.8222718 0.0955518661,13.9985546 C0.240725956,14.173067 0.499459569,14.1960824 0.675742392,14.0529317" id="Fill-12" fill="#FFFFFF" mask="url(#mask-4)"></path>
            </g>
        </g>
    </g>
</svg>