<?xml version="1.0" encoding="UTF-8"?>
<svg width="30px" height="30px" viewBox="0 0 30 30" version="1.1" xmlns="http://www.w3.org/2000/svg" xmlns:xlink="http://www.w3.org/1999/xlink">
    <title>ICON/timezone/night</title>
    <g id="ICON/timezone/night" stroke="none" stroke-width="1" fill="none" fill-rule="evenodd">
        <g id="moon-stars-fill" transform="translate(5.494610, 5.210353)" fill="#FFFFFF" fill-rule="nonzero">
            <path d="M12.04178,0.0483147087 C11.16878,-0.226685291 10.42278,0.727304709 10.88578,1.51730471 C11.61678,2.76330471 12.01078,4.16931471 12.01078,5.57931471 C12.01078,9.99729471 8.42878,13.5792947 4.01075,13.5792947 C3.17875,13.5792947 2.33774,13.4452947 1.57274,13.2042947 C0.70074,12.9292947 -0.07725,13.8832947 0.38575,14.6732947 C2.16275,17.7052947 5.41175,19.5792947 9.01078,19.5792947 C14.53378,19.5792947 19.01078,15.1022947 19.01078,9.57929471 C19.01078,5.17831471 16.16978,1.34631471 12.04178,0.0483147087 Z M6.01075,1.57931471 C5.51075,1.57931471 5.01075,1.91231471 5.01075,2.57931471 C5.01075,3.02731471 4.45875,3.57931471 4.01075,3.57931471 C2.67775,3.57931471 2.67775,5.57931471 4.01075,5.57931471 C4.45875,5.57931471 5.01075,6.13131471 5.01075,6.57930471 C5.01075,7.91229471 7.01078,7.91229471 7.01078,6.57930471 C7.01078,6.13131471 7.56278,5.57931471 8.01078,5.57931471 C9.34378,5.57931471 9.34378,3.57931471 8.01078,3.57931471 C7.56278,3.57931471 7.01078,3.02731471 7.01078,2.57931471 C7.01078,1.91231471 6.51075,1.57931471 6.01075,1.57931471 Z M2.01075,7.57929471 C1.67775,7.57929471 1.35474,7.79129471 1.35474,8.23529471 C1.35474,8.53429471 0.96575,8.92329471 0.66675,8.92329471 C-0.22225,8.92329471 -0.22225,10.2352947 0.66675,10.2352947 C0.96575,10.2352947 1.35474,10.6242947 1.35474,10.9232947 C1.35474,11.8122947 2.66675,11.8112947 2.66675,10.9232947 C2.66675,10.6242947 3.05574,10.2352947 3.35474,10.2352947 C4.24374,10.2352947 4.24374,8.92329471 3.35474,8.92329471 C3.05574,8.92329471 2.66675,8.53429471 2.66675,8.23529471 C2.66675,7.79129471 2.34375,7.57929471 2.01075,7.57929471 Z" id="Shape"></path>
        </g>
    </g>
</svg>